<svg width="116" height="58" viewBox="0 0 116 58" fill="none" xmlns="http://www.w3.org/2000/svg">
<rect x="20.3592" y="14.6376" width="7.04183" height="32.1706" fill="#FA7D09"/>
<rect x="40.2991" y="14.8484" width="7.04183" height="32.1706" fill="#F9AA61"/>
<path d="M20.3592 17.5782L20.3592 14.6376L27.403 14.6376L47.341 43.4341L47.341 47.0235L40.2887 47.0235L20.3592 17.5782Z" fill="#FA7D09"/>
<g filter="url(#filter0_d_37_224)">
<path d="M20.3592 33.8978L23.8682 30.2543L27.401 33.8978V46.8082H20.3592V33.8978Z" fill="#F9AA61"/>
</g>
<g filter="url(#filter1_d_37_224)">
<path d="M40.2991 14.8484H47.341V24.7597L43.9742 28.0752L40.2991 24.7597V14.8484Z" fill="#FA7D09"/>
</g>
<path d="M51.89 37.28C51.89 35.36 52.34 33.635 53.24 32.105C54.14 30.545 55.4 29.33 57.02 28.46C58.67 27.56 60.53 27.11 62.6 27.11C64.73 27.11 66.575 27.56 68.135 28.46C69.725 29.33 70.955 30.545 71.825 32.105C72.695 33.635 73.13 35.36 73.13 37.28C73.13 39.2 72.695 40.94 71.825 42.5C70.955 44.03 69.725 45.245 68.135 46.145C66.575 47.045 64.715 47.495 62.555 47.495C60.515 47.495 58.685 47.09 57.065 46.28C55.445 45.44 54.17 44.255 53.24 42.725C52.34 41.195 51.89 39.38 51.89 37.28ZM56.975 37.325C56.975 38.435 57.215 39.455 57.695 40.385C58.175 41.285 58.835 42.005 59.675 42.545C60.515 43.085 61.445 43.355 62.465 43.355C63.575 43.355 64.535 43.085 65.345 42.545C66.185 42.005 66.83 41.285 67.28 40.385C67.76 39.455 68 38.435 68 37.325C68 36.185 67.76 35.165 67.28 34.265C66.83 33.335 66.185 32.6 65.345 32.06C64.535 31.52 63.575 31.25 62.465 31.25C61.415 31.25 60.47 31.535 59.63 32.105C58.82 32.645 58.175 33.365 57.695 34.265C57.215 35.165 56.975 36.185 56.975 37.325ZM80.2259 19.595H85.3109V27.965H90.2609V31.925H85.3109V47H80.2259V31.925H76.9859V27.965H80.2259V19.595ZM104.303 47.495C102.053 47.495 100.133 47.06 98.543 46.19C96.953 45.32 95.738 44.12 94.898 42.59C94.058 41.03 93.638 39.275 93.638 37.325C93.638 35.405 94.118 33.68 95.078 32.15C96.038 30.62 97.328 29.405 98.948 28.505C100.598 27.575 102.413 27.11 104.393 27.11C107.003 27.11 109.148 27.875 110.828 29.405C112.538 30.905 113.678 33.035 114.248 35.795L98.903 40.97L97.733 38.135L109.703 33.86L108.668 34.445C108.338 33.545 107.798 32.765 107.048 32.105C106.328 31.445 105.308 31.115 103.988 31.115C102.938 31.115 102.008 31.37 101.198 31.88C100.388 32.36 99.743 33.05 99.263 33.95C98.813 34.82 98.588 35.855 98.588 37.055C98.588 38.285 98.843 39.365 99.353 40.295C99.863 41.225 100.553 41.945 101.423 42.455C102.293 42.935 103.283 43.175 104.393 43.175C105.173 43.175 105.923 43.04 106.643 42.77C107.363 42.5 108.038 42.14 108.668 41.69L110.963 45.425C109.973 46.055 108.878 46.565 107.678 46.955C106.508 47.315 105.383 47.495 104.303 47.495Z" fill="#FA7D09"/>
<defs>
<filter id="filter0_d_37_224" x="0.359154" y="0.254272" width="47.0418" height="56.5539" filterUnits="userSpaceOnUse" color-interpolation-filters="sRGB">
<feFlood flood-opacity="0" result="BackgroundImageFix"/>
<feColorMatrix in="SourceAlpha" type="matrix" values="0 0 0 0 0 0 0 0 0 0 0 0 0 0 0 0 0 0 127 0" result="hardAlpha"/>
<feOffset dy="-10"/>
<feGaussianBlur stdDeviation="10"/>
<feComposite in2="hardAlpha" operator="out"/>
<feColorMatrix type="matrix" values="0 0 0 0 0 0 0 0 0 0 0 0 0 0 0 0 0 0 0.25 0"/>
<feBlend mode="normal" in2="BackgroundImageFix" result="effect1_dropShadow_37_224"/>
<feBlend mode="normal" in="SourceGraphic" in2="effect1_dropShadow_37_224" result="shape"/>
</filter>
<filter id="filter1_d_37_224" x="20.2991" y="0.84845" width="47.0418" height="53.2267" filterUnits="userSpaceOnUse" color-interpolation-filters="sRGB">
<feFlood flood-opacity="0" result="BackgroundImageFix"/>
<feColorMatrix in="SourceAlpha" type="matrix" values="0 0 0 0 0 0 0 0 0 0 0 0 0 0 0 0 0 0 127 0" result="hardAlpha"/>
<feOffset dy="6"/>
<feGaussianBlur stdDeviation="10"/>
<feComposite in2="hardAlpha" operator="out"/>
<feColorMatrix type="matrix" values="0 0 0 0 0 0 0 0 0 0 0 0 0 0 0 0 0 0 0.49 0"/>
<feBlend mode="normal" in2="BackgroundImageFix" result="effect1_dropShadow_37_224"/>
<feBlend mode="normal" in="SourceGraphic" in2="effect1_dropShadow_37_224" result="shape"/>
</filter>
</defs>
</svg>
