<svg width="405" height="79" viewBox="0 0 405 79" fill="none" xmlns="http://www.w3.org/2000/svg">
<path d="M193.411 75.8276C193.424 75.8274 193.463 75.8214 193.494 75.8207C193.797 75.814 194.874 75.7881 195.461 75.6551C196.118 75.5063 196.775 75.3039 197.352 74.958C198.217 74.4405 198.946 73.7014 199.616 72.9495C200.176 72.3221 200.604 71.5886 201.066 70.8859C201.251 70.6034 201.491 70.3393 201.59 70.0163C201.604 69.9717 201.622 69.9318 201.631 69.8851C212.418 69.8547 223.204 69.7781 233.987 69.5332C240.462 69.3168 246.813 66.0642 250.358 60.5677C251.877 58.7959 252.848 56.7033 253.285 54.4389C255.81 47.6224 254.731 40.1924 254.962 33.0778C255.176 27.4044 253.985 21.6986 251.414 16.6515C248.426 11.9412 243.958 7.73897 238.246 6.88546C230.243 5.22168 222 6.16642 213.889 5.8916C209.798 5.90068 205.709 5.89789 201.618 5.89851C201.611 5.86928 201.599 5.84397 201.59 5.81569C201.491 5.49267 201.251 5.22855 201.066 4.94606C200.604 4.24336 200.176 3.50985 199.616 2.88243C198.946 2.1306 198.217 1.3915 197.352 0.873998C196.775 0.528038 196.118 0.325646 195.461 0.176909C194.874 0.0438871 193.797 0.0179361 193.494 0.0112724C193.358 -0.0167144 193.211 0.00754966 193.115 0.0802947C193.018 0.153036 192.988 0.224726 192.963 0.390863C192.938 0.556993 192.963 0.628767 193.073 1.04654C193.183 1.46432 193.447 2.19208 193.729 2.85481C194.011 3.51754 194.48 4.42722 194.792 5.00129C194.991 5.36834 195.153 5.64581 195.309 5.89851C189.988 5.8961 184.667 5.89609 179.346 5.8916C179.327 5.86703 179.307 5.84064 179.283 5.81569C179.161 5.68621 178.982 5.51471 178.642 5.39467C178.301 5.27464 178.284 5.30834 177.247 5.25665C176.211 5.20496 173.585 5.2232 172.816 5.27044C172.047 5.3177 171.911 5.32976 171.533 5.47751C171.228 5.59684 171 5.65433 170.953 5.88472C162.845 5.88265 154.732 5.89196 146.624 5.92612C146.326 5.82507 146.259 5.85113 145.271 5.8019C144.235 5.75021 141.602 5.76845 140.833 5.81569C140.199 5.85466 139.993 5.8732 139.729 5.96063C133.03 6.00252 126.33 6.06591 119.631 6.16078C114.947 6.14974 110.292 9.06965 108.719 13.5733C104.703 23.4809 104.776 34.4654 105.186 44.9903C105.71 51.8624 106.597 59.0923 110.321 65.0263C113.657 69.7524 120.087 69.8919 125.325 69.8713C130.258 69.9229 135.189 69.9433 140.123 69.9542C140.29 69.9764 140.495 69.9955 140.833 70.0163C141.602 70.0635 144.235 70.0818 145.271 70.0301C145.952 69.9962 146.18 69.9963 146.362 69.968C152.679 69.9697 158.997 69.9544 165.314 69.9542C167.191 69.944 169.069 69.9396 170.946 69.9335C170.985 70.177 171.221 70.2325 171.533 70.3545C171.911 70.5022 172.047 70.5143 172.816 70.5615C173.585 70.6088 176.211 70.627 177.247 70.5753C178.284 70.5236 178.301 70.5573 178.642 70.4373C178.982 70.3173 179.161 70.1458 179.283 70.0163C179.314 69.9839 179.345 69.9518 179.366 69.9197C184.688 69.9129 190.008 69.9063 195.33 69.899C195.168 70.1604 195.001 70.4467 194.792 70.8307C194.48 71.4048 194.011 72.3144 193.729 72.9772C193.447 73.6399 193.183 74.3677 193.073 74.7854C192.963 75.2032 192.938 75.275 192.963 75.4411C192.987 75.6072 193.018 75.6789 193.115 75.7517C193.181 75.8015 193.271 75.8242 193.363 75.8276C193.379 75.8283 193.396 75.8283 193.411 75.8276ZM175.267 69.9335C175.07 69.9355 174.847 69.9355 174.632 69.9266C174.938 69.9259 175.243 69.9272 175.55 69.9266C175.452 69.9303 175.352 69.9325 175.267 69.9335ZM119.493 67.4074C118.118 67.4419 116.568 67.2359 115.732 66.8069C113.683 65.7568 112.454 64.1392 111.977 61.8584C111.821 61.1139 111.45 60.0322 111.156 59.4496C110.28 57.7167 109.474 55.2113 109.548 54.4596L109.617 53.7625L110.3 54.4044C110.675 54.7564 111.318 55.7684 111.722 56.6544C114.059 61.7828 117.18 64.77 121.936 66.4411C122.35 66.5866 122.347 66.6026 121.957 66.8898C121.523 67.2094 120.562 67.3805 119.493 67.4074ZM193.46 66.9726C193.015 66.9753 192.507 66.9736 191.941 66.9726C188.174 66.9653 181.899 66.8823 175.322 66.7448L170.629 66.6482L168.8 63.7771C167.795 62.2011 166.944 60.7609 166.909 60.5746C166.845 60.2403 166.862 60.241 168.323 60.264C169.138 60.2769 171.262 60.3375 173.037 60.4021C178.053 60.5844 185.786 61.3881 190.671 62.231L192.625 62.5623L193.253 63.5424C193.599 64.0791 194.242 65.0175 194.681 65.6336C195.121 66.2498 195.505 66.8182 195.537 66.8967C195.553 66.9359 194.794 66.9641 193.46 66.9726ZM237.486 66.8139C237.128 66.8138 236.721 66.8159 236.258 66.8139C231.273 66.7933 230.383 66.4105 232.289 65.1229C233.391 64.379 240.483 60.0713 243.353 58.4005C245.793 56.9799 246.755 56.1617 247.846 54.5769C248.285 53.9391 248.953 53.2753 249.337 53.0931C250.05 52.7545 251.163 52.6553 251.414 52.9067C251.492 52.9846 251.559 53.6089 251.559 54.294C251.559 55.6245 251.155 56.6188 249.696 58.9182C248.495 60.8103 246.159 63.4614 244.775 64.5017C244.067 65.034 242.701 65.7786 241.738 66.1513C240.217 66.7399 239.997 66.814 237.486 66.8139ZM162.429 66.5309C161.86 66.5323 160.965 66.5105 159.579 66.4756C147.947 66.1829 140.381 65.9258 140.288 65.8269C140.133 65.6612 139.702 62.9926 139.702 62.1896C139.702 60.9385 139.604 60.9739 143.919 60.7472C146.806 60.5955 157.748 60.2544 160.352 60.2364C160.605 60.2347 160.884 60.7375 161.96 63.1352C162.675 64.7292 163.311 66.1553 163.368 66.3031C163.429 66.4628 163.378 66.5287 162.429 66.5309ZM133.324 64.8606C133.073 64.8688 132.762 64.8508 132.365 64.8192C130.808 64.6955 127.116 64.1717 126.913 64.0462C126.477 63.7767 128.721 62.9806 131.468 62.4243C133.512 62.0103 133.75 61.986 134.256 62.1896C134.726 62.3787 134.819 62.9472 134.525 63.8323C134.275 64.5846 134.078 64.8362 133.324 64.8606ZM215.704 63.57C215.04 63.57 196.72 59.5418 193.543 58.6973C191.4 58.128 187.464 56.7978 184.798 55.7433C178.732 53.3442 175.629 52.5271 172.568 52.5271C170.238 52.5271 170.103 52.4652 168.192 50.4221L166.225 48.317V37.8815V27.439L168.144 25.3892L170.056 23.3463L173.769 23.1254C176.698 22.9543 178.33 22.5772 181.513 21.3378C189.443 18.2495 194.607 16.7435 204.233 14.6914C209.605 13.5463 214.426 12.5114 214.945 12.3931C215.706 12.2199 216.045 12.4865 216.698 13.7735C217.702 15.7524 219.91 22.6411 220.542 25.7757C221.938 32.6889 221.829 44.9821 220.322 51.0432C218.916 56.6956 216.382 63.57 215.704 63.57ZM117.285 61.3959C116.113 61.4533 115.758 60.4413 114.482 58.0486C111.013 51.5407 109.962 45.9357 110.286 35.6177C110.54 27.5227 111.229 24.4116 114.034 18.7083C116.478 13.7384 116.542 13.7044 120.149 15.423C121.784 16.202 124.224 17.2522 125.567 17.7558C126.91 18.2594 128.01 18.7481 128.01 18.8394C128.01 18.9307 127.344 20.3209 126.533 21.9314C123.987 26.9862 123.153 31.0044 123.179 38.0885C123.204 45.1798 123.953 48.702 126.519 53.797C127.368 55.4826 128 56.9115 127.927 56.9719C127.854 57.0323 125.328 58.1555 122.316 59.4703C119.597 60.6573 118.196 61.3513 117.285 61.3959ZM250.91 23.1254C250.742 23.1401 250.533 23.1111 250.275 23.0495C249.013 22.7478 248.828 22.6022 247.763 21.1377C246.499 19.4002 245.779 18.8251 242.642 17.0104C237.993 14.3213 231.741 10.4037 231.516 10.0396C231.035 9.25902 231.608 9.12851 235.906 9.08025C239.455 9.04041 240.128 9.08787 241.096 9.43914C244.333 10.6136 246.909 12.8049 249.337 16.4514C251.123 19.1351 251.547 20.1164 251.552 21.5794C251.556 22.6516 251.416 23.0812 250.91 23.1254ZM109.617 22.0142L109.554 21.3793C109.48 20.6434 110.372 17.8522 111.128 16.4721C111.41 15.9568 111.784 14.8599 111.956 14.0357C112.688 10.5274 115.398 8.3509 118.948 8.41078C119.657 8.42272 120.526 8.4984 120.88 8.58332C121.235 8.66825 121.709 8.84278 121.936 8.96982C122.323 9.18601 122.307 9.214 121.715 9.45294C118.959 10.5657 117.443 11.4887 115.987 12.9245C114.249 14.6384 113.156 16.2286 111.742 19.1155C111.205 20.2121 110.512 21.316 110.196 21.5656L109.617 22.0142ZM160.662 15.5748L157.653 15.5403C154 15.4991 146.818 15.2472 142.932 15.0296C140.616 14.8999 140.047 14.8258 139.895 14.6293C139.636 14.2954 139.663 12.977 139.971 11.3716L140.233 10.0258L140.909 9.92228C141.565 9.82316 149.39 9.59079 158.826 9.39082C162.096 9.32155 163.45 9.33966 163.409 9.45294C163.377 9.54131 162.747 10.9547 162.008 12.5933L160.662 15.5748ZM169.552 15.5127C167.932 15.5155 166.881 15.4508 166.881 15.2988C166.881 15.1021 170.188 9.75763 170.546 9.37703C170.722 9.18948 174.567 9.08866 191.313 8.83869L195.696 8.76967L195.082 9.61859C194.742 10.0848 194.055 11.0958 193.556 11.8617C193.004 12.711 192.525 13.2824 192.335 13.3249C190.634 13.7051 184.137 14.5711 180.091 14.9606C176.524 15.304 172.252 15.508 169.552 15.5127ZM133.462 13.6907C132.838 13.682 131.952 13.5298 130.743 13.2558C127.715 12.5697 126.186 11.8934 127.196 11.6822C128.169 11.4787 131.03 11.1281 132.448 11.0404L133.973 10.9506L134.277 11.4476C134.443 11.7212 134.623 12.2094 134.677 12.5312C134.813 13.3364 134.503 13.7052 133.462 13.6907Z" fill="#EEEA01"/>
<path d="M32.15 35C31.75 36.2333 31.1333 37.1333 30.3 37.7C29.4667 38.2667 28.6 38.5 27.7 38.4C26.8 38.2667 26.0333 37.8167 25.4 37.05C25.9667 36.6167 26.1333 36.15 25.9 35.65C25.7 35.1167 25.1833 34.6833 24.35 34.35C23.5167 33.9833 22.45 33.85 21.15 33.95C19.8167 34.0167 18.4667 34.45 17.1 35.25C15.7667 36.05 14.65 37.2 13.75 38.7C12.85 40.2 12.35 42.0667 12.25 44.3C12.15 46.6 12.3833 48.4667 12.95 49.9C13.5167 51.3333 14.2167 52.4333 15.05 53.2C15.9167 53.9333 16.7833 54.4667 17.65 54.8C18.5167 55.1 19.2167 55.3 19.75 55.4C20.45 55.5333 21.25 55.6333 22.15 55.7C23.0833 55.7333 24.0167 55.6667 24.95 55.5C25.8833 55.3333 26.6833 55.05 27.35 54.65C27.95 54.2833 28.7 53.8 29.6 53.2C30.5 52.5667 31.3667 51.8667 32.2 51.1C33.0333 50.3333 33.65 49.55 34.05 48.75C35.1833 49.5167 35.8833 50.6 36.15 52C36.45 53.4 36.3333 54.9 35.8 56.5C35.2667 58.1 34.3333 59.6167 33 61.05C31.7 62.45 30 63.6 27.9 64.5C25.8 65.3667 23.3167 65.7667 20.45 65.7C19.1167 65.6667 17.5833 65.4167 15.85 64.95C14.15 64.4833 12.4333 63.75 10.7 62.75C8.96667 61.7167 7.38333 60.3667 5.95 58.7C4.55 57 3.48333 54.9 2.75 52.4C2.01667 49.9 1.81667 46.95 2.15 43.55C2.45 40.3167 3.25 37.5333 4.55 35.2C5.88333 32.8667 7.5 30.9667 9.4 29.5C11.3333 28 13.3667 26.8833 15.5 26.15C17.6667 25.3833 19.7333 24.9833 21.7 24.95C23.6667 24.8833 25.3667 25.1833 26.8 25.85C28.2667 26.5167 29.45 27.3833 30.35 28.45C31.25 29.4833 31.85 30.6 32.15 31.8C32.4833 32.9667 32.4833 34.0333 32.15 35ZM67.8813 55.95C67.9146 56.6833 67.9646 57.5833 68.0313 58.65C68.1313 59.7167 68.3479 60.75 68.6813 61.75C69.0146 62.75 69.5479 63.55 70.2813 64.15C69.4479 64.7167 68.5979 65.1167 67.7313 65.35C66.8646 65.6167 66.0146 65.6833 65.1813 65.55C64.9479 65.4833 64.6979 65.4 64.4313 65.3C64.1646 65.2333 63.7979 65.1333 63.3313 65C62.5646 64.7667 61.6646 64.7167 60.6313 64.85C59.5979 64.9833 58.5146 65.15 57.3813 65.35C56.2813 65.5833 55.1979 65.7 54.1313 65.7C52.3979 65.7 50.6646 65.4 48.9313 64.8C47.1979 64.1667 45.6313 63.2 44.2313 61.9C42.8313 60.6 41.7646 58.95 41.0313 56.95C40.2979 54.95 40.0813 52.55 40.3813 49.75C40.5813 47.8167 41.1313 46.05 42.0313 44.45C42.9313 42.8167 44.0313 41.4167 45.3313 40.25C46.6646 39.05 48.0646 38.1333 49.5313 37.5C51.0313 36.8333 52.4813 36.5167 53.8813 36.55C54.9479 36.5833 55.7646 36.6167 56.3313 36.65C56.9313 36.6833 57.6979 36.7667 58.6313 36.9C59.1979 36.9667 59.9146 36.8833 60.7813 36.65C61.6479 36.4167 62.5146 36.1667 63.3813 35.9C64.2813 35.6 65.0479 35.45 65.6813 35.45C66.6479 35.4167 67.3313 35.45 67.7313 35.55C68.1313 35.6167 68.4646 35.6833 68.7313 35.75C68.5313 36.35 68.3646 37.25 68.2313 38.45C68.0979 39.65 67.9979 41.0167 67.9313 42.55C67.8979 44.05 67.8646 45.6167 67.8313 47.25C67.7979 48.8833 67.7813 50.45 67.7813 51.95C67.8146 53.45 67.8479 54.7833 67.8813 55.95ZM49.0813 51.35C49.1479 53.0167 49.4479 54.3167 49.9813 55.25C50.5479 56.15 51.2146 56.7833 51.9813 57.15C52.7813 57.5167 53.5479 57.7 54.2813 57.7C55.7479 57.7333 56.8313 57.1667 57.5313 56C58.2313 54.8333 58.5646 53.2167 58.5313 51.15C58.5313 50.5833 58.4646 49.9167 58.3313 49.15C58.2313 48.3833 58.0313 47.6333 57.7313 46.9C57.4646 46.1667 57.0813 45.55 56.5813 45.05C56.1146 44.55 55.4979 44.3 54.7313 44.3C53.1979 44.3 51.8479 44.8667 50.6813 46C49.5479 47.1333 49.0146 48.9167 49.0813 51.35ZM90.3156 36.05C90.9823 35.8833 91.599 36.05 92.1656 36.55C92.7323 37.05 93.2323 37.7333 93.6656 38.6C94.1323 39.4333 94.5156 40.3 94.8156 41.2C95.1156 42.0667 95.349 42.8 95.5156 43.4C95.6823 44 95.7656 44.3 95.7656 44.3C95.7656 44.3 95.3656 44.3833 94.5656 44.55C93.799 44.6833 92.8323 44.9667 91.6656 45.4C90.5323 45.8 89.399 46.4167 88.2656 47.25C87.599 47.75 86.9656 48.35 86.3656 49.05C85.7656 49.75 85.249 50.65 84.8156 51.75C84.3823 52.8167 84.0656 54.2333 83.8656 56C83.7656 56.9 83.749 57.8333 83.8156 58.8C83.8823 59.7667 83.9156 60.5833 83.9156 61.25C83.949 61.85 84.0323 62.2833 84.1656 62.55C84.3323 62.7833 84.4656 62.9833 84.5656 63.15C84.1323 63.55 83.3323 64 82.1656 64.5C81.0323 64.9667 79.7823 65.2 78.4156 65.2C77.0823 65.2 76.099 64.7667 75.4656 63.9C74.8323 63.0333 74.5156 61.8333 74.5156 60.3C74.5156 59.9333 74.499 59.1333 74.4656 57.9C74.4656 56.6333 74.449 55.1167 74.4156 53.35C74.4156 51.5833 74.399 49.75 74.3656 47.85C74.3656 45.95 74.349 44.1833 74.3156 42.55C74.3156 40.8833 74.299 39.5333 74.2656 38.5C74.2656 37.4667 74.2656 36.95 74.2656 36.95C74.599 36.8833 75.1656 36.8333 75.9656 36.8C76.799 36.7667 77.699 36.8 78.6656 36.9C79.6323 37 80.5323 37.2333 81.3656 37.6C81.7656 37.7667 82.299 37.9333 82.9656 38.1C83.6656 38.2333 84.3323 38.3 84.9656 38.3C85.6323 38.3 86.1156 38.2 86.4156 38C87.049 37.5333 87.6823 37.1333 88.3156 36.8C88.9823 36.4667 89.649 36.2167 90.3156 36.05Z" fill="#EEEA01"/>
<path d="M305.4 25C307.7 25.3 309.517 26.0333 310.85 27.2C312.217 28.3667 313.117 29.7167 313.55 31.25C313.983 32.7833 313.95 34.2833 313.45 35.75C313.25 36.3167 312.95 37.25 312.55 38.55C312.15 39.8167 311.683 41.3 311.15 43C310.65 44.7 310.117 46.45 309.55 48.25C309.017 50.05 308.5 51.75 308 53.35C307.5 54.95 307.067 56.3 306.7 57.4C306.367 58.5 306.133 59.2 306 59.5C305.4 60.8667 304.8 61.9333 304.2 62.7C303.633 63.4667 302.967 64.0333 302.2 64.4C301.467 64.7333 300.533 64.95 299.4 65.05C298.6 65.1167 297.85 64.95 297.15 64.55C296.483 64.1167 295.9 63.6 295.4 63C294.933 62.4 294.6 61.9 294.4 61.5C294.6 61.3 294.65 60.9 294.55 60.3C294.483 59.7 294.333 59.0167 294.1 58.25C293.867 57.45 293.617 56.7 293.35 56C293.083 55.2667 292.867 54.7 292.7 54.3C292.367 53.4667 291.983 52.9333 291.55 52.7C291.15 52.4333 290.767 52.3167 290.4 52.35C290 52.3833 289.583 52.5833 289.15 52.95C288.75 53.3167 288.467 53.8333 288.3 54.5C288.2 54.9333 288.033 55.55 287.8 56.35C287.567 57.1167 287.35 57.85 287.15 58.55C286.95 59.2167 286.833 59.6333 286.8 59.8C286.4 61.2 286.033 62.2333 285.7 62.9C285.367 63.5333 285.017 63.9667 284.65 64.2C284.317 64.4 283.883 64.5833 283.35 64.75C282.583 64.8833 281.767 64.8667 280.9 64.7C280.067 64.5333 279.25 64.2667 278.45 63.9C277.683 63.5 277.017 63.0833 276.45 62.65C275.917 62.2167 275.567 61.8333 275.4 61.5C275.833 61.1333 275.983 60.6667 275.85 60.1C275.75 59.5333 275.633 59.0833 275.5 58.75C275.167 57.8833 274.717 56.65 274.15 55.05C273.583 53.45 272.933 51.65 272.2 49.65C271.5 47.6167 270.767 45.5167 270 43.35C269.267 41.15 268.533 39.0333 267.8 37C267.1 34.9333 266.45 33.0833 265.85 31.45C265.283 29.8167 264.833 28.5167 264.5 27.55C264.167 26.55 264 26.05 264 26.05C264.5 25.9833 265.283 25.9167 266.35 25.85C267.417 25.75 268.567 25.75 269.8 25.85C271.033 25.9167 272.183 26.1667 273.25 26.6C274.35 27.0333 275.167 27.7333 275.7 28.7C275.833 28.9 276.033 29.4667 276.3 30.4C276.567 31.3 276.867 32.3667 277.2 33.6C277.533 34.8 277.85 36.0167 278.15 37.25C278.483 38.45 278.75 39.4833 278.95 40.35C279.183 41.2167 279.317 41.7333 279.35 41.9C279.583 42.7333 279.867 43.3667 280.2 43.8C280.567 44.2 280.917 44.4333 281.25 44.5C281.983 44.6667 282.633 44.0667 283.2 42.7C283.267 42.5667 283.383 42.1333 283.55 41.4C283.75 40.6333 283.983 39.6833 284.25 38.55C284.517 37.4167 284.783 36.2333 285.05 35C285.35 33.7333 285.617 32.5333 285.85 31.4C286.083 30.2667 286.267 29.3167 286.4 28.55C286.567 27.75 286.65 27.2833 286.65 27.15C287.15 26.75 287.85 26.5333 288.75 26.5C289.65 26.4667 290.517 26.6333 291.35 27C292.217 27.3333 292.8 27.9167 293.1 28.75C293.2 29.05 293.4 29.7167 293.7 30.75C294.033 31.7833 294.417 33.0167 294.85 34.45C295.317 35.85 295.783 37.3 296.25 38.8C296.75 40.2667 297.233 41.6 297.7 42.8C298.333 44.4667 299.067 45.3333 299.9 45.4C300.8 45.4667 301.55 44.6 302.15 42.8C302.45 41.8667 302.75 40.8167 303.05 39.65C303.35 38.45 303.617 37.2333 303.85 36C304.117 34.7667 304.35 33.65 304.55 32.65C304.783 31.6167 304.983 30.8167 305.15 30.25C305.45 29.0833 305.6 28.0833 305.6 27.25C305.633 26.4167 305.567 25.6667 305.4 25ZM342.967 55.95C343.001 56.6833 343.051 57.5833 343.117 58.65C343.217 59.7167 343.434 60.75 343.767 61.75C344.101 62.75 344.634 63.55 345.367 64.15C344.534 64.7167 343.684 65.1167 342.817 65.35C341.951 65.6167 341.101 65.6833 340.267 65.55C340.034 65.4833 339.784 65.4 339.517 65.3C339.251 65.2333 338.884 65.1333 338.417 65C337.651 64.7667 336.751 64.7167 335.717 64.85C334.684 64.9833 333.601 65.15 332.467 65.35C331.367 65.5833 330.284 65.7 329.217 65.7C327.484 65.7 325.751 65.4 324.017 64.8C322.284 64.1667 320.717 63.2 319.317 61.9C317.917 60.6 316.851 58.95 316.117 56.95C315.384 54.95 315.167 52.55 315.467 49.75C315.667 47.8167 316.217 46.05 317.117 44.45C318.017 42.8167 319.117 41.4167 320.417 40.25C321.751 39.05 323.151 38.1333 324.617 37.5C326.117 36.8333 327.567 36.5167 328.967 36.55C330.034 36.5833 330.851 36.6167 331.417 36.65C332.017 36.6833 332.784 36.7667 333.717 36.9C334.284 36.9667 335.001 36.8833 335.867 36.65C336.734 36.4167 337.601 36.1667 338.467 35.9C339.367 35.6 340.134 35.45 340.767 35.45C341.734 35.4167 342.417 35.45 342.817 35.55C343.217 35.6167 343.551 35.6833 343.817 35.75C343.617 36.35 343.451 37.25 343.317 38.45C343.184 39.65 343.084 41.0167 343.017 42.55C342.984 44.05 342.951 45.6167 342.917 47.25C342.884 48.8833 342.867 50.45 342.867 51.95C342.901 53.45 342.934 54.7833 342.967 55.95ZM324.167 51.35C324.234 53.0167 324.534 54.3167 325.067 55.25C325.634 56.15 326.301 56.7833 327.067 57.15C327.867 57.5167 328.634 57.7 329.367 57.7C330.834 57.7333 331.917 57.1667 332.617 56C333.317 54.8333 333.651 53.2167 333.617 51.15C333.617 50.5833 333.551 49.9167 333.417 49.15C333.317 48.3833 333.117 47.6333 332.817 46.9C332.551 46.1667 332.167 45.55 331.667 45.05C331.201 44.55 330.584 44.3 329.817 44.3C328.284 44.3 326.934 44.8667 325.767 46C324.634 47.1333 324.101 48.9167 324.167 51.35ZM367.002 36.3C369.302 36.6 370.968 37.2667 372.002 38.3C373.068 39.3333 373.668 40.55 373.802 41.95C373.968 43.35 373.818 44.7833 373.352 46.25C373.085 47.0833 372.685 48.15 372.152 49.45C371.652 50.7167 371.118 52.0167 370.552 53.35C370.018 54.6833 369.518 55.8833 369.052 56.95C368.585 57.9833 368.268 58.7167 368.102 59.15C367.568 60.3833 366.935 61.7 366.202 63.1C365.468 64.4667 364.652 65.75 363.752 66.95C362.885 68.15 361.968 69.1333 361.002 69.9C360.068 70.6667 359.152 71.05 358.252 71.05C357.052 71.05 356.068 70.75 355.302 70.15C354.568 69.55 354.018 68.8 353.652 67.9C353.285 67.0333 353.052 66.1833 352.952 65.35C353.818 65.5833 354.618 65.5667 355.352 65.3C356.085 65.0667 356.718 64.7167 357.252 64.25C357.752 63.7833 358.052 63.25 358.152 62.65C358.285 62.05 358.318 61.5167 358.252 61.05C358.085 59.1833 357.568 57.1667 356.702 55L349.352 36.8C349.852 36.7333 350.502 36.65 351.302 36.55C352.135 36.4167 353.002 36.4 353.902 36.5C354.835 36.5667 355.702 36.8167 356.502 37.25C357.335 37.65 358.018 38.3333 358.552 39.3C358.752 39.6333 358.985 40.15 359.252 40.85C359.552 41.5167 359.852 42.2333 360.152 43C360.485 43.7333 360.752 44.3667 360.952 44.9C361.318 45.7 361.702 46.35 362.102 46.85C362.535 47.3167 362.968 47.5667 363.402 47.6C363.768 47.6333 364.135 47.5 364.502 47.2C364.868 46.8667 365.168 46.45 365.402 45.95C365.602 45.4833 365.835 44.7833 366.102 43.85C366.368 42.9167 366.585 42.1333 366.752 41.5C367.052 40.3333 367.202 39.3333 367.202 38.5C367.235 37.6667 367.168 36.9333 367.002 36.3ZM400.266 44.75L393.866 51.8C393.333 52.3333 392.833 53.0167 392.366 53.85C391.933 54.6833 391.733 55.3667 391.766 55.9C391.766 56.3 391.999 56.65 392.466 56.95C392.933 57.2167 393.383 57.4 393.816 57.5C394.283 57.5667 394.916 57.6333 395.716 57.7C396.516 57.7333 397.366 57.7167 398.266 57.65C399.166 57.5833 399.983 57.4333 400.716 57.2C401.116 57.5333 401.316 58.0333 401.316 58.7C401.349 59.3667 401.216 60.0833 400.916 60.85C400.616 61.5833 400.166 62.2833 399.566 62.95C398.999 63.5833 398.299 64.0667 397.466 64.4C396.799 64.6667 395.866 64.8833 394.666 65.05C393.466 65.2167 392.149 65.3333 390.716 65.4C389.316 65.4667 387.916 65.4667 386.516 65.4C385.116 65.3333 383.849 65.1833 382.716 64.95C381.616 64.7167 380.783 64.4 380.216 64C379.583 63.5333 379.049 62.95 378.616 62.25C378.183 61.55 377.933 60.8 377.866 60C377.833 59.1667 378.066 58.35 378.566 57.55C379.066 56.7167 379.933 55.9667 381.166 55.3C382.033 54.3333 383.049 53.2167 384.216 51.95C385.383 50.6833 386.483 49.5 387.516 48.4C387.583 48.3333 387.616 48.2833 387.616 48.25C387.649 48.2167 387.683 48.1833 387.716 48.15C388.283 47.5167 388.516 46.9167 388.416 46.35C388.283 45.5833 387.733 45.0333 386.766 44.7C385.833 44.3667 384.833 44.0333 383.766 43.7C383.366 43.6 382.949 43.4667 382.516 43.3C382.116 43.1333 381.799 42.95 381.566 42.75C380.833 42.1833 380.216 41.3 379.716 40.1C379.249 38.9 379.033 37.7333 379.066 36.6C379.266 36.6667 379.799 36.75 380.666 36.85C381.566 36.9167 382.633 37 383.866 37.1C385.133 37.1667 386.433 37.2333 387.766 37.3C389.099 37.3333 390.333 37.35 391.466 37.35C393.833 37.35 395.783 37.3333 397.316 37.3C398.883 37.2667 399.966 36.9833 400.566 36.45C401.666 37.7167 402.283 38.8333 402.416 39.8C402.549 40.7667 402.416 41.5833 402.016 42.25C401.883 42.5833 401.649 42.9833 401.316 43.45C400.983 43.9167 400.633 44.35 400.266 44.75Z" fill="#EEEA01"/>
</svg>
